<svg width="17" height="17" viewBox="0 0 17 17" fill="none" xmlns="http://www.w3.org/2000/svg">
<path fill-rule="evenodd" clip-rule="evenodd" d="M4.02145 1.08286C4.29812 1.08286 4.5224 1.30714 4.5224 1.5838V2.08261H11.5225V1.5838C11.5225 1.30714 11.7467 1.08286 12.0234 1.08286C12.3001 1.08286 12.5244 1.30714 12.5244 1.5838V2.08261H13.024C14.1292 2.08261 15.0252 2.97861 15.0252 4.08388V13.0858C15.0252 14.1911 14.1292 15.0871 13.024 15.0871H3.02178C1.91651 15.0871 1.02051 14.1911 1.02051 13.0858V4.08388C1.02051 2.97861 1.91651 2.08261 3.02178 2.08261H3.52051V1.5838C3.52051 1.30714 3.74479 1.08286 4.02145 1.08286ZM3.92407 3.0845H3.02178C2.46984 3.0845 2.0224 3.53194 2.0224 4.08388V4.58481H14.0233V4.08388C14.0233 3.53194 13.5759 3.0845 13.024 3.0845H12.1208C12.0893 3.09071 12.0567 3.09396 12.0234 3.09396C11.9901 3.09396 11.9575 3.09071 11.926 3.0845H4.11883C4.08733 3.09071 4.05477 3.09396 4.02145 3.09396C3.98813 3.09396 3.95557 3.09071 3.92407 3.0845ZM14.0233 5.5867H2.0224V13.0858C2.0224 13.6378 2.46984 14.0852 3.02178 14.0852H13.024C13.5759 14.0852 14.0233 13.6378 14.0233 13.0858V5.5867ZM4.02338 7.58536V9.58633H6.02434V7.58536H4.02338ZM3.02148 7.49105C3.02148 6.9898 3.42782 6.58347 3.92907 6.58347H6.11865C6.6199 6.58347 7.02624 6.9898 7.02624 7.49105V9.68064C7.02624 10.1819 6.6199 10.5882 6.11865 10.5882H3.92907C3.42782 10.5882 3.02148 10.1819 3.02148 9.68064V7.49105Z" fill="#202327"/>
</svg>
