<svg width="16" height="16" viewBox="0 0 16 16" fill="none" xmlns="http://www.w3.org/2000/svg">
<path d="M1.88926 12.1677C1.88926 12.1698 1.88926 12.1735 1.88696 12.1787C1.88782 12.1752 1.8884 12.1715 1.88926 12.1677Z" fill="#FFFFFF"/>
<path d="M13.7498 12.681C13.6469 12.6788 13.5453 12.6576 13.4501 12.6185L11.6753 11.9893L11.6622 11.984C11.6235 11.9679 11.5819 11.9598 11.54 11.9603C11.5013 11.9603 11.463 11.9673 11.4268 11.9809C11.3837 11.9971 10.9952 12.1431 10.5876 12.255C10.3666 12.3157 9.59737 12.5135 8.98005 12.5135C7.40221 12.5135 5.92688 11.9071 4.82633 10.8059C4.28869 10.2716 3.86237 9.63592 3.57205 8.9357C3.28174 8.23548 3.1332 7.48464 3.13503 6.72662C3.13501 6.33166 3.17756 5.93784 3.26193 5.55199C3.53668 4.28234 4.26434 3.1274 5.31081 2.30128C6.38428 1.45923 7.7095 1.00219 9.07382 1.0035C10.7057 1.0035 12.2264 1.62863 13.356 2.75951C14.4237 3.83068 15.0089 5.23911 15.0042 6.72506C15.0033 7.82923 14.6735 8.90811 14.0571 9.82417L14.0512 9.83292L14.028 9.86418C14.0227 9.87137 14.0174 9.87825 14.0124 9.88544L14.0077 9.89387C13.9953 9.91502 13.984 9.93683 13.974 9.9592L14.4659 11.7077C14.4877 11.7798 14.4995 11.8546 14.5009 11.9299C14.5011 12.0286 14.4817 12.1263 14.444 12.2175C14.4063 12.3087 14.351 12.3916 14.2812 12.4613C14.2115 12.5311 14.1286 12.5864 14.0374 12.6241C13.9462 12.6618 13.8485 12.6812 13.7498 12.681Z" fill="#FFFFFF"/>
<path d="M9.37302 13.3001C9.34073 13.2373 9.29529 13.1822 9.23979 13.1385C9.18429 13.0948 9.12003 13.0636 9.05139 13.0469C8.87072 12.9991 8.66005 13.0072 8.49908 12.9953C6.97917 12.8897 5.54889 12.2374 4.47258 11.159C3.51573 10.2075 2.89387 8.97093 2.70063 7.63542C2.65687 7.33098 2.65687 7.25534 2.65687 7.25534C2.65685 7.15377 2.6259 7.0546 2.56814 6.97105C2.51038 6.8875 2.42855 6.82351 2.33353 6.78761C2.23852 6.75171 2.13482 6.74559 2.03624 6.77007C1.93766 6.79455 1.84887 6.84846 1.78168 6.92464C1.78168 6.92464 1.53538 7.19283 1.4191 7.46195C1.09299 8.21332 0.953921 9.03256 1.0138 9.84946C1.07368 10.6664 1.33073 11.4566 1.76293 12.1523C1.84419 12.2877 1.84419 12.3502 1.82606 12.4909C1.74073 12.9319 1.59133 13.7099 1.5135 14.1134C1.48773 14.2443 1.49731 14.3796 1.54127 14.5056C1.58522 14.6315 1.66195 14.7434 1.76355 14.8298L1.77793 14.842C1.91234 14.9487 2.07889 15.0069 2.25053 15.007C2.34707 15.0071 2.44268 14.9881 2.53184 14.9511L4.2044 14.3056C4.26198 14.2837 4.3256 14.2837 4.38318 14.3056C5.04177 14.5507 5.72723 14.6807 6.37674 14.6807C7.18603 14.6815 7.98551 14.5037 8.71819 14.16C8.88885 14.08 9.15579 13.9931 9.31207 13.8124C9.37122 13.7423 9.40851 13.6564 9.41935 13.5654C9.43018 13.4743 9.41407 13.3821 9.37302 13.3001Z" fill="#FFFFFF"/>
</svg>
