<svg width="16" height="16" viewBox="0 0 16 16" fill="none" xmlns="http://www.w3.org/2000/svg">
<path fill-rule="evenodd" clip-rule="evenodd" d="M12.7014 10.2372L12.7007 10.2347C12.6236 9.95728 12.6848 9.71134 12.7248 9.58628C12.7704 9.44362 12.8342 9.32088 12.8837 9.23618L12.8884 9.22808C12.9189 9.17707 12.952 9.1276 12.9873 9.07977C13.4532 8.38073 13.7022 7.5595 13.703 6.71916L13.703 6.71728C13.7108 4.31007 11.6703 2.3 9.07369 2.3C6.81433 2.3 4.9627 3.83514 4.53257 5.8232L4.53224 5.82471C4.4678 6.11981 4.4352 6.42096 4.43501 6.72301M4.43501 6.72301C4.43524 9.16631 6.4153 11.2085 8.97992 11.2085C9.3459 11.2085 9.90404 11.0895 10.2436 10.9964C10.562 10.909 10.8855 10.7907 10.9654 10.7604L10.9669 10.7599C11.1498 10.6909 11.3436 10.6555 11.539 10.6553L11.5368 10.6553C11.7433 10.6545 11.948 10.6934 12.1398 10.7698L12.93 11.0499L12.7014 10.2372M13.8531 11.3772L13.9841 11.8429C13.9923 11.8704 13.9976 11.8987 13.9998 11.9273C13.9998 11.9936 13.9734 12.0572 13.9265 12.1041C13.8796 12.151 13.816 12.1773 13.7497 12.1773C13.7077 12.173 13.6667 12.1625 13.6278 12.1461L11.8091 11.4802M11.2492 11.5084C11.1585 11.5428 10.8084 11.671 10.4552 11.7679C10.102 11.8648 9.45815 12.0085 8.97992 12.0085C5.97302 12.0085 3.63501 9.60802 3.63501 6.72301C3.6352 6.36357 3.67397 6.00519 3.75066 5.65403C4.26327 3.28476 6.45125 1.5 9.07369 1.5C12.0806 1.5 14.5124 3.83801 14.503 6.71989C14.5021 7.72551 14.2018 8.70808 13.6403 9.54238C13.6167 9.57343 13.5947 9.60578 13.5747 9.63927C13.509 9.7518 13.4403 9.90808 13.4715 10.0206L13.8531 11.3772" fill="#202327"/>
<path fill-rule="evenodd" clip-rule="evenodd" d="M2.68655 7.81168L2.07726 7.25121C1.66731 7.98769 1.46899 8.8232 1.50424 9.66536C1.53949 10.5075 1.80693 11.3235 2.27699 12.0232C2.3492 12.1323 2.38983 12.2167 2.37733 12.2732C2.36898 12.311 2.20567 13.1598 2.09797 13.7202L2.09728 13.7238C2.09122 13.7553 2.08534 13.7859 2.07968 13.8154C2.07671 13.8308 2.07379 13.846 2.07095 13.8608C2.03567 14.0444 2.01036 14.1763 2.00534 14.2024L2.00349 14.2121C1.99604 14.2545 1.99963 14.2981 2.01396 14.3387C2.02886 14.3809 2.05482 14.4184 2.08914 14.4471C2.13493 14.4836 2.19188 14.5033 2.25043 14.5028C2.28171 14.5029 2.31268 14.4965 2.34138 14.484L4.09833 13.7964C4.21925 13.7487 4.35414 13.751 4.47341 13.8026C5.06541 14.0333 5.71993 14.1777 6.37476 14.1777C7.25347 14.1786 8.11676 13.9469 8.87687 13.506L8.25445 12.9335C7.67251 13.2257 7.02914 13.3784 6.37561 13.3777C5.83907 13.3777 5.28607 13.2594 4.77401 13.0612C4.46506 12.9326 4.11799 12.9291 3.80614 13.0516L3.80492 13.0521L2.97893 13.3754L3.10235 12.7351C3.13834 12.5489 3.15848 12.4459 3.15848 12.4459C3.21883 12.1728 3.13443 11.9481 3.09612 11.8572C3.04976 11.7472 2.9896 11.6504 2.9441 11.5816L2.94104 11.577C2.55325 10.9998 2.33262 10.3267 2.30354 9.6319C2.27717 9.00168 2.40933 8.37598 2.68655 7.81168Z" fill="#202327"/>
</svg>
