<svg width="16" height="16" viewBox="0 0 16 16" fill="none" xmlns="http://www.w3.org/2000/svg">
<path d="M3.80515 1.00373C3.78441 1.00354 3.76394 1.00851 3.7456 1.0182C3.72725 1.02789 3.71161 1.04199 3.70007 1.05923C3.68854 1.07648 3.68147 1.09632 3.67951 1.11697C3.67756 1.13762 3.68077 1.15844 3.68886 1.17754L3.76076 1.34729L5.03309 4.31398C5.04174 4.33416 5.05555 4.35171 5.07312 4.36486C5.0907 4.37801 5.11143 4.3863 5.13323 4.3889C5.15503 4.3915 5.17713 4.38831 5.1973 4.37966C5.21748 4.37101 5.23502 4.3572 5.24817 4.33962L7.59652 1.2038C7.61045 1.18522 7.61894 1.16313 7.62102 1.14C7.62311 1.11687 7.61871 1.09362 7.60833 1.07285C7.59794 1.05208 7.58197 1.03461 7.56222 1.0224C7.54247 1.0102 7.5197 1.00373 7.49648 1.00373H3.80515Z" fill="#075985"/>
<path d="M13.1273 1.81832L11.8365 4.83177C11.8283 4.85079 11.8251 4.87153 11.8269 4.89213C11.8288 4.91273 11.8357 4.93255 11.8471 4.94981C11.8585 4.96707 11.874 4.98123 11.8923 4.99102C11.9105 5.00082 11.9308 5.00594 11.9515 5.00594H15.1097C15.132 5.00595 15.1539 5 15.1732 4.9887C15.1924 4.9774 15.2083 4.96117 15.2191 4.94168C15.2299 4.92219 15.2354 4.90016 15.2348 4.87787C15.2343 4.85557 15.2278 4.83383 15.2161 4.81488L13.3483 1.80175C13.3363 1.78235 13.3191 1.76663 13.2987 1.75628C13.2784 1.74594 13.2556 1.74138 13.2328 1.74309C13.21 1.74479 13.1881 1.75271 13.1695 1.76597C13.1509 1.77924 13.1363 1.79734 13.1273 1.81832Z" fill="#075985"/>
<path d="M2.65863 1.80313L0.791522 4.81502C0.779759 4.83396 0.773275 4.85571 0.772741 4.878C0.772207 4.9003 0.777644 4.92233 0.788487 4.94181C0.799331 4.9613 0.815187 4.97753 0.834414 4.98883C0.853641 5.00013 0.875538 5.00608 0.897839 5.00607H4.05606C4.07676 5.00605 4.09713 5.00089 4.11534 4.99105C4.13355 4.98122 4.14904 4.96702 4.16042 4.94973C4.17179 4.93243 4.17869 4.91259 4.18051 4.89197C4.18233 4.87135 4.179 4.8506 4.17082 4.83159L2.87751 1.81971C2.86826 1.79925 2.85368 1.78166 2.83529 1.76878C2.81689 1.7559 2.79537 1.74821 2.77298 1.74651C2.7506 1.74482 2.72816 1.74918 2.70804 1.75914C2.68792 1.76911 2.67085 1.7843 2.65863 1.80313Z" fill="#075985"/>
<path d="M12.2936 1.00372H8.37183C8.36051 1.00365 8.3494 1.00675 8.33975 1.01266C8.33011 1.01857 8.3223 1.02706 8.31723 1.03718C8.31215 1.04729 8.31001 1.05863 8.31104 1.0699C8.31207 1.08116 8.31624 1.09192 8.32306 1.10095L10.8215 4.42902C10.8278 4.43757 10.8364 4.44429 10.8462 4.44849C10.856 4.4527 10.8667 4.45424 10.8773 4.45298C10.8879 4.45171 10.8979 4.44767 10.9065 4.44127C10.915 4.43487 10.9217 4.42633 10.9259 4.41652L12.2414 1.3476L12.3476 1.08688C12.3514 1.07793 12.3529 1.06821 12.3521 1.05854C12.3512 1.04888 12.3481 1.03956 12.3428 1.03138C12.3376 1.02321 12.3305 1.01642 12.3221 1.0116C12.3137 1.00679 12.3033 1.00408 12.2936 1.00372Z" fill="#075985"/>
<path d="M7.47143 14.0069L4.67613 6.08358C4.66793 6.06057 4.65279 6.04068 4.63281 6.02663C4.61282 6.01258 4.58897 6.00506 4.56455 6.00513H0.804352C0.782569 6.00507 0.761208 6.01112 0.742701 6.02261C0.724193 6.0341 0.709285 6.05055 0.699674 6.0701C0.690063 6.08965 0.686137 6.1115 0.688341 6.13317C0.690546 6.15484 0.698793 6.17546 0.712144 6.19267L7.46362 14.9386C7.48647 14.9682 7.51908 14.9888 7.55564 14.9966C7.59221 15.0045 7.63037 14.9991 7.66335 14.9815C7.69652 14.964 7.72231 14.9352 7.73603 14.9003C7.74974 14.8654 7.75046 14.8268 7.73805 14.7914L7.47143 14.0069Z" fill="#075985"/>
<path d="M15.2018 6.00513H11.4416C11.4173 6.00512 11.3936 6.01267 11.3737 6.02672C11.3539 6.04078 11.3389 6.06065 11.3309 6.08358L8.26149 14.778C8.2486 14.8145 8.24913 14.8544 8.263 14.8905C8.27686 14.9267 8.30314 14.9567 8.33713 14.9752C8.37113 14.9936 8.41057 14.9994 8.44841 14.9914C8.48625 14.9834 8.52004 14.9623 8.54374 14.9318L15.294 6.19267C15.3073 6.17546 15.3156 6.15484 15.3178 6.13317C15.32 6.1115 15.316 6.08965 15.3064 6.0701C15.2968 6.05055 15.2819 6.0341 15.2634 6.02261C15.2449 6.01112 15.2235 6.00507 15.2018 6.00513Z" fill="#075985"/>
<path d="M8.10201 2.47048L9.85239 4.80443C9.86632 4.823 9.8748 4.84509 9.87689 4.86822C9.87897 4.89134 9.87458 4.91459 9.86419 4.93536C9.85381 4.95613 9.83785 4.97359 9.8181 4.9858C9.79835 4.998 9.77559 5.00447 9.75237 5.00447H6.2516C6.22838 5.00447 6.20562 4.998 6.18587 4.9858C6.16612 4.97359 6.15016 4.95613 6.13978 4.93536C6.12939 4.91459 6.125 4.89134 6.12708 4.86822C6.12917 4.84509 6.13765 4.823 6.15158 4.80443L7.90196 2.47048C7.91361 2.45495 7.92871 2.44235 7.94607 2.43367C7.96343 2.42499 7.98257 2.42047 8.00198 2.42047C8.02139 2.42047 8.04054 2.42499 8.0579 2.43367C8.07526 2.44235 8.09036 2.45495 8.10201 2.47048ZM7.88321 12.1698L5.76712 6.17129C5.76048 6.15244 5.75845 6.13227 5.7612 6.11247C5.76396 6.09268 5.77142 6.07383 5.78296 6.05752C5.7945 6.0412 5.80979 6.02789 5.82754 6.0187C5.84528 6.0095 5.86498 6.0047 5.88496 6.00469H10.119C10.139 6.0047 10.1587 6.0095 10.1764 6.0187C10.1942 6.02789 10.2095 6.0412 10.221 6.05752C10.2325 6.07383 10.24 6.09268 10.2428 6.11247C10.2455 6.13227 10.2435 6.15244 10.2368 6.17129L8.11982 12.1698C8.11119 12.1941 8.09522 12.2152 8.07412 12.2301C8.05302 12.245 8.02782 12.253 8.00198 12.253C7.97615 12.253 7.95095 12.245 7.92985 12.2301C7.90875 12.2152 7.89184 12.1941 7.88321 12.1698Z" fill="#075985"/>
</svg>
