<svg width="16" height="16" viewBox="0 0 16 16" fill="none" xmlns="http://www.w3.org/2000/svg">
<path fill-rule="evenodd" clip-rule="evenodd" d="M7.0019 2.00131H4.04751L5.12183 4.50806L7.0019 2.00131ZM4.24275 5.00027L3.26489 2.71859L1.85135 5.00027H4.24275ZM1.83255 6.00216L7.02461 12.7365L4.64806 6.00216H1.83255ZM5.71051 6.00216L8.00285 12.4978L10.2955 6.00216H5.71051ZM11.7633 5.00027L12.7408 2.71924L14.154 5.00027H11.7633ZM14.1728 6.00216H11.3579L8.9814 12.7356L14.1728 6.00216ZM13.1508 1.47853L15.3528 5.033C15.4614 5.20864 15.5142 5.41358 15.5038 5.61983C15.4933 5.82607 15.4204 6.02425 15.2946 6.18802L8.80116 14.6102C8.80102 14.6104 8.8013 14.6101 8.80116 14.6102C8.70725 14.7325 8.5861 14.8321 8.44784 14.9003C8.30938 14.9686 8.15706 15.0041 8.00267 15.0041C7.84827 15.0041 7.69595 14.9686 7.55749 14.9003C7.41924 14.8321 7.2985 14.733 7.20458 14.6108C7.20445 14.6106 7.20472 14.611 7.20458 14.6108L0.711317 6.18875C0.585526 6.02498 0.511997 5.82607 0.501548 5.61983C0.491098 5.41358 0.543663 5.20904 0.652257 5.03339L2.85455 1.47853C2.85444 1.47872 2.85467 1.47834 2.85455 1.47853C2.94468 1.3325 3.07095 1.21133 3.22074 1.12759C3.37072 1.04373 3.53965 0.999613 3.71148 0.999419L7.99873 0.999419C8.00236 0.99938 8.00599 0.99938 8.00962 0.999419H12.2933C12.4651 0.999613 12.6346 1.04373 12.7846 1.12759C12.9344 1.21137 13.0606 1.33241 13.1508 1.47853C13.1509 1.47865 13.1507 1.47841 13.1508 1.47853ZM8.00293 2.33642L10.0008 5.00027H6.00504L8.00293 2.33642ZM9.00397 2.00131L10.8841 4.50819L11.9585 2.00131H9.00397Z" fill="#202327"/>
</svg>
