<svg width="17" height="17" viewBox="0 0 17 17" fill="none" xmlns="http://www.w3.org/2000/svg">
<path fill-rule="evenodd" clip-rule="evenodd" d="M5.00127 2.00189C4.73622 2.00189 4.48202 2.10718 4.2946 2.2946C4.10718 2.48202 4.00189 2.73622 4.00189 3.00127V13.0035C4.00189 13.2685 4.10718 13.5227 4.2946 13.7101C4.48202 13.8975 4.73622 14.0028 5.00127 14.0028H12.0028C12.2678 14.0028 12.522 13.8975 12.7095 13.7101C12.8969 13.5227 13.0022 13.2685 13.0022 13.0035V7.00348H9.50326C9.10509 7.00348 8.72323 6.84531 8.44168 6.56376C8.16013 6.28221 8.00195 5.90035 8.00195 5.50218V2.00189H5.00127ZM9.00384 2.7112L12.2942 6.00159H9.50326C9.37081 6.00159 9.24378 5.94898 9.15012 5.85532C9.05646 5.76166 9.00384 5.63463 9.00384 5.50218V2.7112ZM3.58616 1.58616C3.96147 1.21085 4.4705 1 5.00127 1H8.08788C8.48588 1.00006 8.86763 1.15817 9.14909 1.43956L13.5645 5.85494C13.8459 6.13639 14.004 6.51812 14.0041 6.91611V13.0035C14.0041 13.5342 13.7932 14.0433 13.4179 14.4186C13.0426 14.7939 12.5336 15.0047 12.0028 15.0047H5.00127C4.4705 15.0047 3.96147 14.7939 3.58616 14.4186C3.21085 14.0433 3 13.5342 3 13.0035V3.00127C3 2.4705 3.21085 1.96147 3.58616 1.58616ZM5.50098 9.00278C5.50098 8.72611 5.72526 8.50183 6.00192 8.50183H11.0037C11.2804 8.50183 11.5047 8.72611 11.5047 9.00278C11.5047 9.27944 11.2804 9.50372 11.0037 9.50372H6.00192C5.72526 9.50372 5.50098 9.27944 5.50098 9.00278ZM5.50098 11.5031C5.50098 11.2265 5.72526 11.0022 6.00192 11.0022H11.0037C11.2804 11.0022 11.5047 11.2265 11.5047 11.5031C11.5047 11.7798 11.2804 12.0041 11.0037 12.0041H6.00192C5.72526 12.0041 5.50098 11.7798 5.50098 11.5031Z" fill="#202327"/>
</svg>
