<svg width="17" height="17" viewBox="0 0 17 17" fill="none" xmlns="http://www.w3.org/2000/svg">
<path fill-rule="evenodd" clip-rule="evenodd" d="M2.75122 4.00189C2.33738 4.00189 2.00189 4.33738 2.00189 4.75122V12.2529C2.00189 12.6667 2.33738 13.0022 2.75122 13.0022H13.2535C13.6673 13.0022 14.0028 12.6667 14.0028 12.2529V4.75122C14.0028 4.33738 13.6673 4.00189 13.2535 4.00189H2.75122ZM1 4.75122C1 3.78405 1.78405 3 2.75122 3H13.2535C14.2207 3 15.0047 3.78405 15.0047 4.75122V12.2529C15.0047 13.22 14.2207 14.0041 13.2535 14.0041H2.75122C1.78405 14.0041 1 13.22 1 12.2529V4.75122ZM3.1065 5.19407C3.27636 4.97568 3.59109 4.93634 3.80947 5.10619L8.0029 8.36775L12.1963 5.10619C12.4147 4.93634 12.7294 4.97568 12.8993 5.19407C13.0692 5.41245 13.0298 5.72718 12.8114 5.89704L8.31045 9.3978C8.12956 9.5385 7.87625 9.5385 7.69535 9.3978L3.19437 5.89704C2.97599 5.72718 2.93664 5.41245 3.1065 5.19407Z" fill="#202327"/>
</svg>
