<svg width="17" height="17" viewBox="0 0 17 17" fill="none" xmlns="http://www.w3.org/2000/svg">
<path d="M13.2527 3H2.75038C2.2863 3.0005 1.84138 3.18507 1.51322 3.51322C1.18507 3.84138 1.0005 4.2863 1 4.75038V12.252C1.0005 12.7161 1.18507 13.161 1.51322 13.4892C1.84138 13.8173 2.2863 14.0019 2.75038 14.0024H13.2527C13.7167 14.0019 14.1617 13.8173 14.4898 13.4892C14.818 13.161 15.0026 12.7161 15.003 12.252V4.75038C15.0026 4.2863 14.818 3.84138 14.4898 3.51322C14.1617 3.18507 13.7167 3.0005 13.2527 3ZM12.8094 5.89532L8.30847 9.39608C8.2207 9.46431 8.11269 9.50135 8.00152 9.50135C7.89035 9.50135 7.78235 9.46431 7.69458 9.39608L3.1936 5.89532C3.14072 5.85538 3.0963 5.80534 3.06293 5.74809C3.02956 5.69083 3.00789 5.62752 2.9992 5.56183C2.99051 5.49613 2.99496 5.42937 3.01229 5.36541C3.02963 5.30144 3.0595 5.24157 3.10018 5.18925C3.14085 5.13694 3.19152 5.09323 3.24923 5.06066C3.30695 5.0281 3.37056 5.00733 3.43637 4.99956C3.50218 4.9918 3.56888 4.99719 3.63259 5.01542C3.6963 5.03365 3.75575 5.06436 3.80749 5.10577L8.00152 8.36773L12.1956 5.10577C12.3004 5.02657 12.4323 4.99184 12.5626 5.00908C12.6928 5.02632 12.8111 5.09414 12.8918 5.19789C12.9724 5.30164 13.009 5.43297 12.9936 5.56348C12.9782 5.694 12.912 5.8132 12.8094 5.89532Z" fill="#202327"/>
</svg>
