<svg width="17" height="17" viewBox="0 0 17 17" fill="none" xmlns="http://www.w3.org/2000/svg">
<g clip-path="url(#clip0_137_2573)">
<path fill-rule="evenodd" clip-rule="evenodd" d="M0.69128 7.4755C2.72517 4.56006 5.36241 3.03119 8.00457 3.03119C11.1076 3.03119 13.7806 5.05272 15.3575 7.48829L15.3583 7.48944C15.4627 7.65171 15.5182 7.84061 15.5182 8.03358C15.5182 8.22623 15.4629 8.41481 15.3588 8.5769C13.7832 11.0438 11.1276 13.035 8.00457 13.035C4.84829 13.035 2.24382 11.0479 0.672102 8.58813C0.565238 8.42218 0.509812 8.22833 0.512811 8.03094C0.515818 7.83306 0.577414 7.6405 0.689817 7.47761L0.691274 7.47549L0.69128 7.4755ZM1.51476 8.04618L1.51585 8.04786L1.51584 8.04786C2.96735 10.32 5.2937 12.0331 8.00457 12.0331C10.6851 12.0331 13.0616 10.3127 14.5148 8.037L14.5158 8.0355C14.5161 8.03493 14.5163 8.03426 14.5163 8.03358C14.5163 8.0329 14.5161 8.03224 14.5158 8.03167L14.937 7.76057L14.5165 8.03281C13.0578 5.77987 10.6615 4.03308 8.00457 4.03308C5.77511 4.03308 3.41517 5.32339 1.51476 8.04618ZM8.01552 6.03308C6.91097 6.03308 6.01556 6.92849 6.01556 8.03304C6.01556 9.13758 6.91097 10.033 8.01552 10.033C9.12006 10.033 10.0155 9.13758 10.0155 8.03304C10.0155 6.92849 9.12006 6.03308 8.01552 6.03308ZM5.01367 8.03304C5.01367 6.37516 6.35765 5.03119 8.01552 5.03119C9.67339 5.03119 11.0174 6.37516 11.0174 8.03304C11.0174 9.69091 9.67339 11.0349 8.01552 11.0349C6.35764 11.0349 5.01367 9.69091 5.01367 8.03304Z" fill="#202327"/>
</g>
<defs>
<clipPath id="clip0_137_2573">
<rect width="16.0035" height="16.0035" fill="white" transform="translate(0.0136719 0.0313721)"/>
</clipPath>
</defs>
</svg>
