<svg width="17" height="17" viewBox="0 0 17 17" fill="none" xmlns="http://www.w3.org/2000/svg">
<g clip-path="url(#clip0_137_2554)">
<path d="M13.513 14.0338C13.4473 14.034 13.3822 14.0211 13.3216 13.9959C13.2609 13.9707 13.2058 13.9338 13.1595 13.8873L2.15707 2.88485C2.06724 2.7903 2.0179 2.6644 2.01957 2.53399C2.02124 2.40358 2.07379 2.27898 2.16601 2.18676C2.25823 2.09454 2.38283 2.04199 2.51324 2.04032C2.64365 2.03865 2.76955 2.08799 2.8641 2.17782L13.8665 13.1802C13.9364 13.2502 13.984 13.3393 14.0033 13.4362C14.0225 13.5332 14.0126 13.6337 13.9748 13.7251C13.937 13.8164 13.8729 13.8945 13.7907 13.9495C13.7085 14.0044 13.6119 14.0338 13.513 14.0338Z" fill="#202327"/>
<path d="M8.0014 12.0341C6.70455 12.0341 5.45397 11.6503 4.28434 10.8933C3.21942 10.2056 2.26077 9.22071 1.51186 8.04889V8.04639C2.13512 7.15338 2.81777 6.39822 3.55105 5.78934C3.55768 5.78379 3.5631 5.77693 3.56694 5.76919C3.57079 5.76144 3.57299 5.75298 3.5734 5.74435C3.57381 5.73571 3.57242 5.72708 3.56933 5.71901C3.56624 5.71094 3.5615 5.70359 3.55543 5.69744L2.93279 5.07574C2.92173 5.06459 2.90687 5.05801 2.89117 5.05731C2.87548 5.05662 2.86009 5.06186 2.84809 5.07199C2.06917 5.72838 1.3462 6.53356 0.688865 7.47627C0.575774 7.63858 0.513489 7.83086 0.509927 8.02866C0.506365 8.22646 0.561687 8.42085 0.668861 8.58713C1.49435 9.87898 2.55677 10.967 3.74078 11.7331C5.07388 12.5968 6.50857 13.0344 8.0014 13.0344C8.80718 13.0318 9.60727 12.8991 10.3707 12.6411C10.3807 12.6377 10.3898 12.6318 10.3969 12.6239C10.404 12.616 10.4091 12.6065 10.4115 12.5961C10.4139 12.5857 10.4136 12.5749 10.4107 12.5647C10.4077 12.5545 10.4023 12.5452 10.3947 12.5377L9.72021 11.8632C9.70468 11.848 9.68548 11.8372 9.66449 11.8317C9.6435 11.8262 9.62145 11.8263 9.6005 11.8319C9.07811 11.9664 8.54082 12.0344 8.0014 12.0341Z" fill="#202327"/>
<path d="M15.3529 7.48884C14.5258 6.20981 13.4528 5.12332 12.25 4.34659C10.9194 3.4864 9.45037 3.03162 8.00193 3.03162C7.20469 3.03303 6.41336 3.1686 5.66111 3.43264C5.65109 3.43613 5.64212 3.44211 5.63504 3.45002C5.62797 3.45794 5.62303 3.46752 5.62069 3.47787C5.61834 3.48822 5.61867 3.49899 5.62164 3.50918C5.62461 3.51937 5.63013 3.52863 5.63767 3.5361L6.31125 4.20969C6.32693 4.2251 6.3464 4.23611 6.36769 4.24159C6.38899 4.24708 6.41135 4.24686 6.43253 4.24094C6.94419 4.10253 7.47188 4.03222 8.00193 4.03183C9.27377 4.03183 10.5206 4.42036 11.7074 5.18834C12.7923 5.88849 13.7622 6.87245 14.513 8.0327L14.5139 8.0352L14.513 8.03771C13.968 8.89568 13.2918 9.66279 12.5088 10.311C12.5021 10.3165 12.4967 10.3234 12.4928 10.3312C12.4889 10.3389 12.4866 10.3474 12.4862 10.3561C12.4857 10.3648 12.4871 10.3734 12.4902 10.3815C12.4933 10.3897 12.4981 10.397 12.5042 10.4032L13.1262 11.0249C13.1372 11.036 13.152 11.0426 13.1676 11.0434C13.1832 11.0441 13.1985 11.039 13.2106 11.029C14.0464 10.3252 14.7699 9.49803 15.356 8.57595C15.4596 8.41346 15.5144 8.22464 15.5139 8.03193C15.5133 7.83922 15.4574 7.65073 15.3529 7.48884Z" fill="#202327"/>
<path d="M8.01298 5.03223C7.78812 5.03211 7.56397 5.05728 7.34475 5.10727C7.33367 5.10957 7.32343 5.11483 7.31511 5.12249C7.30679 5.13015 7.3007 5.13992 7.29749 5.15076C7.29428 5.16161 7.29408 5.17312 7.29689 5.18407C7.29971 5.19503 7.30544 5.20501 7.31348 5.21297L10.8341 8.73266C10.8421 8.7407 10.8521 8.74644 10.863 8.74925C10.874 8.75207 10.8855 8.75186 10.8963 8.74865C10.9072 8.74544 10.9169 8.73935 10.9246 8.73103C10.9322 8.72271 10.9375 8.71247 10.9398 8.7014C11.04 8.26176 11.0399 7.80519 10.9395 7.36559C10.8391 6.926 10.6409 6.51467 10.3598 6.16216C10.0786 5.80966 9.72158 5.52503 9.3153 5.32941C8.90902 5.13379 8.4639 5.03222 8.01298 5.03223Z" fill="#202327"/>
<path d="M5.19211 7.33472C5.18416 7.32668 5.17417 7.32095 5.16322 7.31813C5.15227 7.31532 5.14076 7.31552 5.12991 7.31873C5.11907 7.32194 5.1093 7.32803 5.10164 7.33635C5.09398 7.34467 5.08872 7.35491 5.08642 7.36599C4.97302 7.8614 4.98726 8.3775 5.12781 8.86592C5.26835 9.35433 5.5306 9.79906 5.88997 10.1584C6.24934 10.5178 6.69408 10.7801 7.18249 10.9206C7.6709 11.0611 8.187 11.0754 8.68242 10.962C8.69349 10.9597 8.70373 10.9544 8.71206 10.9468C8.72038 10.9391 8.72646 10.9293 8.72967 10.9185C8.73288 10.9076 8.73309 10.8961 8.73028 10.8852C8.72746 10.8742 8.72173 10.8642 8.71369 10.8563L5.19211 7.33472Z" fill="#202327"/>
</g>
<defs>
<clipPath id="clip0_137_2554">
<rect width="16.0035" height="16.0035" fill="white" transform="translate(0.0102539 0.0313721)"/>
</clipPath>
</defs>
</svg>
