<svg width="16" height="16" viewBox="0 0 16 16" fill="none" xmlns="http://www.w3.org/2000/svg">
<g clip-path="url(#clip0_1_214)">
<path fill-rule="evenodd" clip-rule="evenodd" d="M2.54194 7.31991C2.51436 7.54319 2.50016 7.7706 2.50016 8.00133C2.50016 11.04 4.9635 13.5034 8.00219 13.5034C9.25309 13.5034 10.4065 13.0859 11.3307 12.3828C11.7043 12.5216 12.0616 12.6423 12.399 12.7437C13.1824 12.979 13.8859 13.1187 14.4492 13.1276C14.7307 13.132 15.0034 13.1044 15.2426 13.0222C15.4858 12.9387 15.7212 12.7882 15.868 12.5345L15.8681 12.5343C16.0547 12.2114 16.025 11.8527 15.9265 11.5488C15.8275 11.2435 15.6396 10.9263 15.4021 10.6106C14.9636 10.0276 14.2935 9.36797 13.4624 8.68277C13.49 8.45949 13.5042 8.23207 13.5042 8.00133C13.5042 4.96264 11.0409 2.4993 8.00219 2.4993C6.75122 2.4993 5.59776 2.91679 4.67353 3.62005C3.65202 3.24034 2.73483 2.98983 2.00517 2.90592C1.61983 2.86161 1.25721 2.86007 0.947991 2.92822C0.639876 2.99613 0.320009 3.14962 0.135732 3.46798L0.135662 3.4681C-0.0111697 3.72192 -0.0241137 4.00111 0.025119 4.25358C0.0735049 4.50172 0.186097 4.75144 0.330795 4.99262C0.620339 5.47523 1.09348 6.01347 1.68943 6.57282C1.94757 6.8151 2.23269 7.06499 2.54194 7.31991ZM3.63481 6.91192C4.63546 7.69235 5.86561 8.51994 7.24204 9.31308C8.62052 10.1074 9.95568 10.7576 11.1345 11.2324C11.9781 10.4145 12.5023 9.26912 12.5023 8.00133C12.5023 5.51597 10.4876 3.50119 8.00219 3.50119C5.8925 3.50119 4.12188 4.95293 3.63481 6.91192ZM12.1534 11.6126C12.3371 11.6752 12.5153 11.7325 12.6873 11.7842C13.4318 12.0078 14.0344 12.119 14.465 12.1258C14.6804 12.1292 14.8266 12.1058 14.917 12.0747C14.9706 12.0563 14.9927 12.0397 15.0001 12.0328C15.0035 12.0189 15.0095 11.9691 14.9734 11.8578C14.9224 11.7004 14.8056 11.4843 14.6014 11.2128C14.2907 10.7996 13.8195 10.3129 13.2098 9.78166C12.9774 10.4618 12.6154 11.0819 12.1534 11.6126ZM14.9987 12.0371C14.9987 12.037 14.9989 12.0364 14.9994 12.0353L14.9987 12.0371ZM15.0018 12.0311C15.0026 12.0299 15.0031 12.0294 15.0032 12.0294C15.0032 12.0294 15.0028 12.03 15.0018 12.0311ZM10.201 11.9286C9.11764 11.4623 7.94117 10.8723 6.74183 10.1812C5.54534 9.49171 4.44742 8.77169 3.50257 8.07006C3.5393 10.5237 5.53978 12.5015 8.00219 12.5015C8.80079 12.5015 9.55081 12.2935 10.201 11.9286ZM2.79455 6.22108C2.647 6.09254 2.50703 5.96614 2.37509 5.8423C1.80876 5.31075 1.411 4.84567 1.18993 4.47718C1.07931 4.29281 1.02667 4.15504 1.00849 4.06183C0.997839 4.00721 1.00098 3.98011 1.00325 3.97031C1.01343 3.96058 1.05264 3.93109 1.16362 3.90663C1.32132 3.87188 1.56082 3.86332 1.89072 3.90126C2.40719 3.96064 3.07315 4.12499 3.85089 4.39024C3.3889 4.9209 3.02698 5.54098 2.79455 6.22108ZM1.00469 3.96588C1.00475 3.96592 1.00452 3.96667 1.00385 3.96802C1.0043 3.96651 1.00463 3.96584 1.00469 3.96588ZM1.00139 3.97219C1.00073 3.97317 1.00032 3.97361 1.00028 3.97359L1.00139 3.97219Z" fill="#202327"/>
</g>
<defs>
<clipPath id="clip0_1_214">
<rect width="16.0035" height="16.0035" fill="white"/>
</clipPath>
</defs>
</svg>
