<svg width="16" height="16" viewBox="0 0 16 16" fill="none" xmlns="http://www.w3.org/2000/svg">
<g clip-path="url(#clip0_1_216)">
<path d="M3.02723 8.96209C2.98607 8.93187 2.93665 8.91496 2.88561 8.91366C2.83456 8.91235 2.78434 8.9267 2.74169 8.95478C2.69905 8.98286 2.66602 9.02332 2.64705 9.07073C2.62808 9.11813 2.62408 9.17021 2.63558 9.21996C3.19039 11.6708 5.38555 13.5062 8.00175 13.5062C8.55732 13.5064 9.10969 13.4221 9.63992 13.2562C9.68885 13.2411 9.73197 13.2113 9.76345 13.1709C9.79494 13.1306 9.81326 13.0815 9.81596 13.0303C9.81865 12.9792 9.80558 12.9285 9.77851 12.885C9.75144 12.8416 9.71169 12.8074 9.66461 12.7873C8.49302 12.2709 7.35064 11.6906 6.24261 11.0491C5.13371 10.4124 4.06032 9.71565 3.02723 8.96209Z" fill="#202327"/>
<path d="M15.4011 10.6154C15.2702 10.4409 15.1164 10.2578 14.9416 10.0674C14.8845 10.0045 14.8122 9.95741 14.7316 9.93057C14.651 9.90374 14.5649 9.8981 14.4815 9.91421C14.3981 9.93032 14.3202 9.96763 14.2554 10.0225C14.1906 10.0775 14.141 10.1481 14.1115 10.2278C14.1115 10.2328 14.108 10.2375 14.1062 10.2425C14.075 10.3271 14.0677 10.4187 14.0851 10.5073C14.1024 10.5958 14.1438 10.6778 14.2046 10.7445C14.9154 11.5259 15.0304 11.9482 15.001 12.0372C14.9385 12.1069 14.4681 12.2526 13.1835 11.9269C12.9995 11.8802 12.7982 11.8233 12.5796 11.7562C12.4387 11.7129 12.295 11.6661 12.1485 11.6159C12.3787 11.352 12.5832 11.0668 12.7593 10.7641C12.7646 10.7551 12.7702 10.746 12.7756 10.7366C13.2527 9.90539 13.5036 8.96357 13.5032 8.00511C13.5033 7.80673 13.4929 7.60849 13.472 7.41123C13.1728 4.65531 10.8339 2.50391 8.00201 2.50391C6.80045 2.50323 5.63195 2.89738 4.67629 3.62571C4.09706 4.06657 3.61031 4.61716 3.24379 5.24607C3.23879 5.25513 3.23316 5.2642 3.22785 5.27326C3.05366 5.57673 2.9089 5.89617 2.79557 6.22722C2.67908 6.12574 2.56666 6.02499 2.45831 5.92496C2.28983 5.76868 2.14042 5.62396 2.00758 5.48737C1.08332 4.54154 0.973296 4.06175 1.00236 3.97298C1.06488 3.90327 1.4881 3.7895 2.52207 4.01392C2.61047 4.03336 2.70251 4.02817 2.78816 3.9989C2.87381 3.96963 2.94978 3.91742 3.0078 3.84795L3.01905 3.8342C3.07298 3.76939 3.10935 3.69181 3.12467 3.6089C3.13999 3.526 3.13375 3.44054 3.10654 3.36074C3.07934 3.28094 3.03208 3.20947 2.9693 3.15319C2.90653 3.09691 2.83034 3.0577 2.74806 3.03934C2.50264 2.98373 2.25456 2.94064 2.00477 2.91025C1.04456 2.79991 0.415987 2.98901 0.136239 3.47287C0.0349666 3.64728 -0.0622421 3.94453 0.0512201 4.36681C0.219069 4.99382 0.817324 5.75462 1.66407 6.55166C1.93382 6.80578 2.22857 7.06334 2.54301 7.32183C2.77181 7.50937 3.01186 7.69879 3.25879 7.88696C3.42362 8.01198 3.59189 8.13701 3.76359 8.26204C3.93529 8.38706 4.10929 8.5098 4.28558 8.63024C5.07981 9.18067 5.91906 9.70923 6.74205 10.1834C7.04087 10.3555 7.33926 10.5222 7.63725 10.6835C7.93523 10.8448 8.23081 10.9991 8.524 11.1464C9.20853 11.4902 9.87898 11.8003 10.5201 12.0663C10.7949 12.1805 11.0638 12.2864 11.3268 12.3839C11.6984 12.522 12.0573 12.6436 12.3992 12.7461L12.4336 12.7565C13.2378 12.9959 13.9158 13.1218 14.449 13.1315H14.5034C15.1798 13.1315 15.6381 12.9321 15.8656 12.5377C16.1497 12.0494 15.9931 11.4024 15.4011 10.6154Z" fill="#202327"/>
</g>
<defs>
<clipPath id="clip0_1_216">
<rect width="16.0035" height="16.0035" fill="white" transform="translate(0 0.003479)"/>
</clipPath>
</defs>
</svg>
