<svg width="16" height="16" viewBox="0 0 16 16" fill="none" xmlns="http://www.w3.org/2000/svg">
<path d="M8.17578 3.16879C8.12924 3.12427 8.06733 3.09943 8.00293 3.09943C7.93853 3.09943 7.87661 3.12427 7.83008 3.16879L2.0757 8.66592C2.05126 8.6893 2.03182 8.71739 2.01855 8.7485C2.00528 8.7796 1.99846 8.81308 1.9985 8.8469L1.99756 14.0061C1.99756 14.2714 2.10294 14.5258 2.29052 14.7134C2.47809 14.901 2.7325 15.0064 2.99778 15.0064H6.00155C6.13419 15.0064 6.2614 14.9537 6.35519 14.8599C6.44897 14.7661 6.50166 14.6389 6.50166 14.5063V10.2553C6.50166 10.189 6.52801 10.1254 6.5749 10.0785C6.6218 10.0316 6.6854 10.0053 6.75172 10.0053H9.25226C9.31858 10.0053 9.38218 10.0316 9.42908 10.0785C9.47597 10.1254 9.50232 10.189 9.50232 10.2553V14.5063C9.50232 14.6389 9.55501 14.7661 9.6488 14.8599C9.74258 14.9537 9.86979 15.0064 10.0024 15.0064H13.005C13.2702 15.0064 13.5246 14.901 13.7122 14.7134C13.8998 14.5258 14.0052 14.2714 14.0052 14.0061V8.8469C14.0052 8.81308 13.9984 8.7796 13.9851 8.7485C13.9718 8.71739 13.9524 8.6893 13.928 8.66592L8.17578 3.16879Z" fill="#202327"/>
<path d="M15.3437 7.63486L13.0057 5.39812V2.00394C13.0057 1.8713 12.953 1.7441 12.8592 1.65031C12.7654 1.55652 12.6382 1.50383 12.5056 1.50383H11.0052C10.8726 1.50383 10.7454 1.55652 10.6516 1.65031C10.5578 1.7441 10.5051 1.8713 10.5051 2.00394V3.00416L8.69475 1.27316C8.52534 1.10187 8.27341 1.00372 8.00116 1.00372C7.72985 1.00372 7.47855 1.10187 7.30913 1.27347L0.660809 7.63423C0.466391 7.82177 0.442011 8.13028 0.618925 8.33345C0.66335 8.38473 0.717746 8.42643 0.778803 8.45603C0.839859 8.48562 0.906298 8.50248 0.974077 8.50558C1.04186 8.50868 1.10956 8.49795 1.17306 8.47406C1.23656 8.45016 1.29454 8.41359 1.34346 8.36658L7.82925 2.16898C7.87578 2.12446 7.9377 2.09962 8.0021 2.09962C8.0665 2.09962 8.12841 2.12446 8.17495 2.16898L14.6614 8.36658C14.7569 8.45821 14.8849 8.50821 15.0172 8.50563C15.1496 8.50306 15.2755 8.4481 15.3675 8.35282C15.5594 8.15403 15.5434 7.82583 15.3437 7.63486Z" fill="#202327"/>
</svg>
