<svg width="16" height="16" viewBox="0 0 16 16" fill="none" xmlns="http://www.w3.org/2000/svg">
<path fill-rule="evenodd" clip-rule="evenodd" d="M8.69461 1.26949L10.5005 2.99818V2C10.5005 1.72333 10.7248 1.49905 11.0014 1.49905H12.5024C12.779 1.49905 13.0033 1.72333 13.0033 2V5.39402L15.3489 7.63936C15.5488 7.83068 15.5557 8.14778 15.3644 8.34764C15.1731 8.5475 14.856 8.55442 14.6561 8.36311L14.0028 7.73773V14.0026C14.0028 14.2681 13.8974 14.5228 13.7096 14.7105C13.5219 14.8982 13.2673 15.0037 13.0018 15.0037H10.0011C9.72445 15.0037 9.50017 14.7794 9.50017 14.5028V10.2518C9.50017 10.1857 9.47392 10.1223 9.42718 10.0756C9.38044 10.0289 9.31705 10.0026 9.25095 10.0026H6.75041C6.68431 10.0026 6.62092 10.0289 6.57418 10.0756C6.52745 10.1223 6.50119 10.1857 6.50119 10.2518V14.5028C6.50119 14.7794 6.27691 15.0037 6.00024 15.0037H2.99959C2.7341 15.0037 2.47947 14.8982 2.29174 14.7105C2.104 14.5228 1.99854 14.2681 1.99854 14.0026V7.73836L1.34588 8.36311C1.14603 8.55442 0.828923 8.5475 0.637609 8.34764C0.446296 8.14778 0.453222 7.83068 0.653079 7.63936L7.30783 1.26909C7.51204 1.06206 7.7903 0.999041 8.00296 0.999422C8.21474 0.999802 8.49201 1.06334 8.69461 1.26949ZM3.00043 6.77929V14.0018H5.4993V10.2518C5.4993 9.92001 5.63111 9.60179 5.86574 9.36716C6.10037 9.13253 6.41859 9.00072 6.75041 9.00072H9.25095C9.58277 9.00072 9.90099 9.13253 10.1356 9.36716C10.3702 9.60179 10.5021 9.92001 10.5021 10.2518V14.0018H13.0009V6.77867L8.01066 2.00172C8.00772 2.00147 8.00453 2.00132 8.00116 2.00131C7.99768 2.00131 7.99439 2.00145 7.99136 2.00171L3.00043 6.77929ZM12.0014 4.43495V2.50095H11.5024V3.95724L12.0014 4.43495Z" fill="#202327"/>
</svg>
