<svg width="17" height="17" viewBox="0 0 17 17" fill="none" xmlns="http://www.w3.org/2000/svg">
<path d="M8.13808 1.78577C4.69108 1.78577 1.88672 4.59013 1.88672 8.03713C1.88672 11.4841 4.69108 14.2885 8.13808 14.2885C11.5851 14.2885 14.3894 11.4841 14.3894 8.03713C14.3894 4.59013 11.5851 1.78577 8.13808 1.78577ZM8.13808 4.34883C8.29881 4.34883 8.45594 4.39649 8.58958 4.48579C8.72323 4.57508 8.82739 4.70201 8.8889 4.8505C8.95041 4.999 8.9665 5.1624 8.93514 5.32005C8.90379 5.47769 8.82639 5.6225 8.71273 5.73615C8.59908 5.84981 8.45427 5.92721 8.29663 5.95856C8.13898 5.98992 7.97558 5.97383 7.82708 5.91232C7.67859 5.85081 7.55166 5.74665 7.46237 5.613C7.37307 5.47936 7.32541 5.32224 7.32541 5.1615C7.32541 4.94597 7.41103 4.73926 7.56343 4.58685C7.71584 4.43445 7.92255 4.34883 8.13808 4.34883ZM9.63841 11.4129H6.88781C6.75517 11.4129 6.62797 11.3602 6.53418 11.2664C6.44039 11.1726 6.3877 11.0454 6.3877 10.9128C6.3877 10.7801 6.44039 10.6529 6.53418 10.5591C6.62797 10.4653 6.75517 10.4126 6.88781 10.4126H7.763V7.66205H7.26289C7.13025 7.66205 7.00305 7.60936 6.90926 7.51557C6.81547 7.42178 6.76278 7.29458 6.76278 7.16194C6.76278 7.0293 6.81547 6.9021 6.90926 6.80831C7.00305 6.71452 7.13025 6.66183 7.26289 6.66183H8.26311C8.39575 6.66183 8.52295 6.71452 8.61674 6.80831C8.71053 6.9021 8.76322 7.0293 8.76322 7.16194V10.4126H9.63841C9.77105 10.4126 9.89825 10.4653 9.99204 10.5591C10.0858 10.6529 10.1385 10.7801 10.1385 10.9128C10.1385 11.0454 10.0858 11.1726 9.99204 11.2664C9.89825 11.3602 9.77105 11.4129 9.63841 11.4129Z" fill="#0E7490"/>
</svg>
