<svg width="17" height="17" viewBox="0 0 17 17" fill="none" xmlns="http://www.w3.org/2000/svg">
<path fill-rule="evenodd" clip-rule="evenodd" d="M1.6377 7.78323C1.6377 4.33109 4.4368 1.53198 7.88895 1.53198C11.3411 1.53198 14.1402 4.33109 14.1402 7.78323C14.1402 11.2354 11.3411 14.0345 7.88895 14.0345C4.4368 14.0345 1.6377 11.2354 1.6377 7.78323ZM7.88895 2.53198C4.98909 2.53198 2.6377 4.88337 2.6377 7.78323C2.6377 10.6831 4.98909 13.0345 7.88895 13.0345C10.7888 13.0345 13.1402 10.6831 13.1402 7.78323C13.1402 4.88337 10.7888 2.53198 7.88895 2.53198ZM7.1606 3.81689C7.37685 3.6724 7.63109 3.59528 7.89118 3.59528C8.23994 3.59528 8.57441 3.73382 8.82102 3.98043C9.06764 4.22704 9.20618 4.56152 9.20618 4.91028C9.20618 5.17036 9.12906 5.42461 8.98456 5.64086C8.84007 5.85711 8.63469 6.02566 8.39441 6.12519C8.15412 6.22472 7.88972 6.25076 7.63463 6.20002C7.37955 6.14928 7.14524 6.02404 6.96133 5.84013C6.77742 5.65622 6.65218 5.42191 6.60144 5.16682C6.5507 4.91174 6.57674 4.64734 6.67627 4.40705C6.7758 4.16676 6.94435 3.96139 7.1606 3.81689ZM7.89118 4.59528C7.82887 4.59528 7.76797 4.61375 7.71617 4.64836C7.66437 4.68298 7.62399 4.73217 7.60015 4.78973C7.57631 4.84729 7.57007 4.91063 7.58223 4.97173C7.59438 5.03284 7.62438 5.08897 7.66843 5.13302C7.71249 5.17708 7.76862 5.20708 7.82972 5.21923C7.89083 5.23139 7.95416 5.22515 8.01172 5.20131C8.06928 5.17746 8.11848 5.13709 8.15309 5.08529C8.18771 5.03349 8.20618 4.97258 8.20618 4.91028C8.20618 4.82674 8.17299 4.74661 8.11392 4.68754C8.05484 4.62846 7.97472 4.59528 7.89118 4.59528ZM6.51367 6.90857C6.51367 6.63243 6.73753 6.40857 7.01367 6.40857H8.0143C8.29044 6.40857 8.5143 6.63243 8.5143 6.90857V10.1591H9.39032C9.66646 10.1591 9.89032 10.3829 9.89032 10.6591C9.89032 10.9352 9.66646 11.1591 9.39032 11.1591H6.6377C6.36155 11.1591 6.1377 10.9352 6.1377 10.6591C6.1377 10.3829 6.36155 10.1591 6.6377 10.1591H7.5143V7.40857H7.01367C6.73753 7.40857 6.51367 7.18471 6.51367 6.90857Z" fill="#0E7490"/>
</svg>
