<svg width="17" height="17" viewBox="0 0 17 17" fill="none" xmlns="http://www.w3.org/2000/svg">
<path d="M10.9187 2.16682C11.6918 2.16913 12.4325 2.47725 12.9792 3.02389C13.5258 3.57053 13.8339 4.31126 13.8362 5.08433V10.9187C13.8339 11.6918 13.5258 12.4325 12.9792 12.9792C12.4325 13.5258 11.6918 13.8339 10.9187 13.8362H5.08433C4.31126 13.8339 3.57053 13.5258 3.02389 12.9792C2.47725 12.4325 2.16913 11.6918 2.16682 10.9187V5.08433C2.16913 4.31126 2.47725 3.57053 3.02389 3.02389C3.57053 2.47725 4.31126 2.16913 5.08433 2.16682H10.9187ZM10.9187 1H5.08433C2.8379 1 1 2.8379 1 5.08433V10.9187C1 13.1651 2.8379 15.003 5.08433 15.003H10.9187C13.1651 15.003 15.003 13.1651 15.003 10.9187V5.08433C15.003 2.8379 13.1651 1 10.9187 1Z" fill="#202327"/>
<path d="M11.7957 5.08938C11.6221 5.08938 11.4524 5.0379 11.308 4.94146C11.1637 4.84502 11.0512 4.70794 10.9848 4.54756C10.9183 4.38718 10.901 4.21071 10.9348 4.04045C10.9687 3.8702 11.0523 3.7138 11.175 3.59106C11.2978 3.46831 11.4542 3.38472 11.6244 3.35085C11.7947 3.31698 11.9712 3.33436 12.1315 3.4008C12.2919 3.46723 12.429 3.57972 12.5254 3.72406C12.6219 3.8684 12.6734 4.03809 12.6734 4.21168C12.6736 4.32701 12.6511 4.44126 12.6071 4.54786C12.563 4.65445 12.4984 4.75131 12.4168 4.83286C12.3353 4.91441 12.2384 4.97905 12.1318 5.02307C12.0252 5.06709 11.911 5.08963 11.7957 5.08938Z" fill="#202327"/>
<path d="M8.00076 5.66657C8.46237 5.66657 8.91362 5.80346 9.29743 6.05991C9.68125 6.31637 9.9804 6.68088 10.157 7.10736C10.3337 7.53383 10.3799 8.00311 10.2899 8.45585C10.1998 8.90859 9.97752 9.32446 9.65111 9.65087C9.3247 9.97727 8.90883 10.1996 8.45609 10.2896C8.00335 10.3797 7.53407 10.3335 7.1076 10.1568C6.68113 9.98015 6.31662 9.681 6.06016 9.29719C5.8037 8.91337 5.66682 8.46213 5.66682 8.00052C5.66748 7.38172 5.91359 6.78846 6.35115 6.3509C6.7887 5.91334 7.38197 5.66723 8.00076 5.66657ZM8.00076 4.49976C7.30838 4.49976 6.63154 4.70507 6.05584 5.08974C5.48015 5.47441 5.03145 6.02115 4.76648 6.66083C4.50152 7.30052 4.43219 8.0044 4.56727 8.68348C4.70235 9.36256 5.03576 9.98634 5.52535 10.4759C6.01494 10.9655 6.63872 11.2989 7.3178 11.434C7.99688 11.5691 8.70077 11.4998 9.34045 11.2348C9.98013 10.9698 10.5269 10.5211 10.9115 9.94544C11.2962 9.36974 11.5015 8.6929 11.5015 8.00052C11.5015 7.07206 11.1327 6.18163 10.4762 5.52511C9.81965 4.86859 8.92922 4.49976 8.00076 4.49976Z" fill="#202327"/>
</svg>
