<svg width="16" height="17" viewBox="0 0 16 17" fill="none" xmlns="http://www.w3.org/2000/svg">
<path d="M13.8831 1H2.19651C1.55793 1 1 1.45947 1 2.09055V13.8031C1 14.4376 1.55793 15.003 2.19651 15.003H13.8797C14.5217 15.003 15.003 14.4339 15.003 13.8031V2.09055C15.0068 1.45947 14.5217 1 13.8831 1ZM5.34063 12.6722H3.33457V6.43493H5.34063V12.6722ZM4.40699 5.4866H4.39261C3.7506 5.4866 3.33488 5.00869 3.33488 4.41043C3.33488 3.80123 3.76154 3.33457 4.41793 3.33457C5.07432 3.33457 5.47597 3.7978 5.49035 4.41043C5.49004 5.00869 5.07432 5.4866 4.40699 5.4866ZM12.6722 12.6722H10.6662V9.2618C10.6662 8.44475 10.3742 7.8865 9.64844 7.8865C9.09395 7.8865 8.76575 8.26158 8.61978 8.62697C8.56508 8.75825 8.55039 8.93704 8.55039 9.11958V12.6722H6.54433V6.43493H8.55039V7.30293C8.84233 6.88722 9.29837 6.28896 10.3595 6.28896C11.6764 6.28896 12.6725 7.15697 12.6725 9.02831L12.6722 12.6722Z" fill="#202327"/>
</svg>
