<svg width="16" height="16" viewBox="0 0 16 16" fill="none" xmlns="http://www.w3.org/2000/svg">
<path d="M10.507 11.7561V8.50543H5.97472C5.84208 8.50543 5.71488 8.45274 5.62109 8.35895C5.5273 8.26516 5.47461 8.13796 5.47461 8.00532C5.47461 7.87268 5.5273 7.74548 5.62109 7.65169C5.71488 7.5579 5.84208 7.50521 5.97472 7.50521H10.507V4.2545C10.5065 3.79042 10.3219 3.3455 9.99373 3.01734C9.66558 2.68919 9.22065 2.50462 8.75658 2.50412H2.75526C2.29119 2.50462 1.84626 2.68919 1.51811 3.01734C1.18995 3.3455 1.00538 3.79042 1.00488 4.2545V11.7561C1.00538 12.2202 1.18995 12.6651 1.51811 12.9933C1.84626 13.3214 2.29119 13.506 2.75526 13.5065H8.75658C9.22065 13.506 9.66558 13.3214 9.99373 12.9933C10.3219 12.6651 10.5065 12.2202 10.507 11.7561Z" fill="#202327"/>
<path d="M13.2997 8.50597L11.6528 10.1531C11.563 10.2477 11.5136 10.3736 11.5153 10.504C11.517 10.6345 11.5695 10.7591 11.6618 10.8513C11.754 10.9435 11.8786 10.9961 12.0091 10.9978C12.1395 10.9994 12.2654 10.9501 12.36 10.8603L14.8609 8.35935C14.9546 8.26556 15.0072 8.13839 15.0072 8.00579C15.0072 7.87319 14.9546 7.74602 14.8609 7.65222L12.36 5.15132C12.2654 5.06148 12.1395 5.01213 12.0091 5.0138C11.8786 5.01547 11.754 5.06803 11.6618 5.16026C11.5695 5.2525 11.517 5.37711 11.5153 5.50754C11.5136 5.63797 11.563 5.76389 11.6528 5.85845L13.2997 7.50561H10.5059V8.50597H13.2997Z" fill="#202327"/>
</svg>
