<svg width="16" height="16" viewBox="0 0 16 16" fill="none" xmlns="http://www.w3.org/2000/svg">
<path fill-rule="evenodd" clip-rule="evenodd" d="M1.51585 3.01261C1.84427 2.6842 2.2897 2.49969 2.75415 2.49969H8.75546C9.21991 2.49969 9.66534 2.6842 9.99375 3.01261C10.3222 3.34103 10.5067 3.78646 10.5067 4.25091V5.50119C10.5067 5.77785 10.2824 6.00213 10.0057 6.00213C9.72906 6.00213 9.50478 5.77785 9.50478 5.50119V4.25091C9.50478 4.05218 9.42584 3.86158 9.28531 3.72106C9.14478 3.58053 8.95419 3.50159 8.75546 3.50159H2.75415C2.55541 3.50159 2.36482 3.58053 2.22429 3.72106C2.08377 3.86159 2.00482 4.05218 2.00482 4.25091V11.7525C2.00482 11.9513 2.08377 12.1419 2.22429 12.2824C2.36482 12.4229 2.55541 12.5019 2.75415 12.5019H8.75546C8.95419 12.5019 9.14478 12.4229 9.28531 12.2824C9.42584 12.1419 9.50478 11.9513 9.50478 11.7525V10.5023C9.50478 10.2256 9.72906 10.0013 10.0057 10.0013C10.2824 10.0013 10.5067 10.2256 10.5067 10.5023V11.7525C10.5067 12.217 10.3222 12.6624 9.99375 12.9908C9.66534 13.3193 9.21991 13.5038 8.75546 13.5038H2.75415C2.2897 13.5038 1.84427 13.3193 1.51585 12.9908C1.18743 12.6624 1.00293 12.217 1.00293 11.7525V4.25091C1.00293 3.78646 1.18743 3.34103 1.51585 3.01261ZM11.6516 5.14709C11.8472 4.95146 12.1644 4.95146 12.3601 5.14709L14.861 7.64799C15.0566 7.84362 15.0566 8.1608 14.861 8.35644L12.3601 10.8573C12.1644 11.053 11.8472 11.053 11.6516 10.8573C11.456 10.6617 11.456 10.3445 11.6516 10.1489L13.2974 8.50311L5.97358 8.50281C5.69692 8.5028 5.47264 8.27851 5.47266 8.00184C5.47267 7.72518 5.69696 7.5009 5.97362 7.50092L13.2973 7.50122L11.6516 5.85553C11.456 5.6599 11.456 5.34272 11.6516 5.14709Z" fill="#8e44d1"/>
</svg>
