<svg width="16" height="16" viewBox="0 0 16 16" fill="none" xmlns="http://www.w3.org/2000/svg">
<path fill-rule="evenodd" clip-rule="evenodd" d="M1.99902 5.00079C1.99902 4.72413 2.2233 4.49985 2.49997 4.49985H13.5024C13.779 4.49985 14.0033 4.72413 14.0033 5.00079C14.0033 5.27746 13.779 5.50174 13.5024 5.50174H2.49997C2.2233 5.50174 1.99902 5.27746 1.99902 5.00079ZM1.99902 8.00153C1.99902 7.72486 2.2233 7.50058 2.49997 7.50058H13.5024C13.779 7.50058 14.0033 7.72486 14.0033 8.00153C14.0033 8.27819 13.779 8.50247 13.5024 8.50247H2.49997C2.2233 8.50247 1.99902 8.27819 1.99902 8.00153ZM1.99902 11.0023C1.99902 10.7256 2.2233 10.5013 2.49997 10.5013H13.5024C13.779 10.5013 14.0033 10.7256 14.0033 11.0023C14.0033 11.2789 13.779 11.5032 13.5024 11.5032H2.49997C2.2233 11.5032 1.99902 11.2789 1.99902 11.0023Z" fill="#202327"/>
</svg>
