<svg width="16" height="16" viewBox="0 0 16 16" fill="none" xmlns="http://www.w3.org/2000/svg">
<g clip-path="url(#clip0_1_223)">
<path d="M3.36185 7.81711C3.29555 7.70226 3.18634 7.61844 3.05825 7.58409C2.93016 7.54974 2.79367 7.56766 2.6788 7.63391L1.1248 8.53018C0.979322 8.61355 0.852246 8.72554 0.751237 8.85938C0.650227 8.99322 0.577379 9.14613 0.537086 9.30889C0.459552 9.63163 0.510559 9.97186 0.679325 10.2577L0.815624 10.4934C0.981551 10.7803 1.2546 10.9896 1.57477 11.0753C1.89495 11.161 2.23604 11.1161 2.52311 10.9504L4.07586 10.0554C4.1328 10.0226 4.18271 9.9789 4.22275 9.9268C4.26279 9.87469 4.29216 9.81521 4.30921 9.75175C4.32625 9.68829 4.33062 9.62209 4.32207 9.55693C4.31351 9.49178 4.29221 9.42896 4.25937 9.37204L3.36185 7.81711Z" fill="#202327"/>
<path d="M11.9655 13.7826L9.02364 7.94383C9.01649 7.92956 9.01506 7.9131 9.01965 7.89782C9.02424 7.88253 9.0345 7.86958 9.04834 7.86162L9.30777 7.7119C9.36467 7.67907 9.41454 7.63536 9.45455 7.58325C9.49455 7.53114 9.52389 7.47166 9.5409 7.40821C9.55791 7.34476 9.56225 7.27858 9.55368 7.21345C9.5451 7.14832 9.52378 7.08552 9.49093 7.02863L8.0053 4.45526C7.97249 4.39833 7.92879 4.34842 7.8767 4.30839C7.8246 4.26836 7.76513 4.23898 7.70167 4.22194C7.63822 4.20491 7.57203 4.20054 7.50689 4.20909C7.44175 4.21764 7.37893 4.23894 7.32202 4.27178L4.62206 5.82837C4.47953 5.91003 4.35461 6.01915 4.25455 6.14942C4.15449 6.27969 4.08126 6.42852 4.03912 6.58728C4.01045 6.68643 3.99603 6.78914 3.99629 6.89235C3.99817 7.1299 4.28386 7.60188 4.56267 8.08886C4.86242 8.61241 5.16405 9.14784 5.38597 9.28131C5.52725 9.36633 5.77668 9.43447 5.98642 9.43447H6.01267L3.53338 14.7981C3.50576 14.8578 3.49016 14.9223 3.48748 14.9879C3.48479 15.0536 3.49508 15.1191 3.51775 15.1808C3.54041 15.2425 3.57501 15.2991 3.61957 15.3474C3.66413 15.3957 3.71778 15.4348 3.77744 15.4623C3.8371 15.4899 3.9016 15.5054 3.96727 15.5081C4.03294 15.5107 4.09848 15.5003 4.16014 15.4776C4.2218 15.4549 4.27838 15.4202 4.32664 15.3756C4.3749 15.331 4.41389 15.2773 4.44139 15.2176L7.36953 8.88341C7.39107 8.83652 7.42669 8.79752 7.47143 8.77182L8.07187 8.4255C8.07925 8.42128 8.08741 8.41861 8.09585 8.41766C8.10429 8.4167 8.11284 8.41748 8.12097 8.41993C8.1291 8.42239 8.13664 8.42648 8.14314 8.43195C8.14964 8.43742 8.15496 8.44416 8.15877 8.45175L11.0722 14.2343C11.1319 14.3527 11.2362 14.4426 11.3622 14.4842C11.4881 14.5257 11.6255 14.5156 11.7439 14.4559C11.8624 14.3962 11.9523 14.2919 11.9938 14.1659C12.0354 14.0399 12.0252 13.9026 11.9655 13.7842V13.7826Z" fill="#202327"/>
<path d="M15.323 3.62133L13.8812 1.12856C13.7148 0.84206 13.4417 0.633131 13.1217 0.547479C12.8016 0.461827 12.4607 0.506426 12.1734 0.671518L9.25551 2.35275C9.11292 2.43436 8.98795 2.54349 8.88787 2.67378C8.78779 2.80408 8.71458 2.95296 8.67249 3.11177C8.63105 3.24567 8.61754 3.38665 8.63279 3.52598C8.68718 3.9205 9.03919 4.47633 9.4584 5.21065C9.88293 5.95248 10.3622 6.78872 10.6129 6.96973C10.8248 7.11955 11.078 7.20003 11.3375 7.20012C11.5562 7.2002 11.771 7.14262 11.9602 7.03319L14.8788 5.35102C15.024 5.26784 15.1508 5.15617 15.2518 5.02273C15.3527 4.88929 15.4256 4.73682 15.4662 4.57449C15.5443 4.25024 15.4929 3.90832 15.323 3.62133Z" fill="#202327"/>
</g>
<defs>
<clipPath id="clip0_1_223">
<rect width="16.0035" height="16.0035" fill="white" transform="translate(0 0.003479)"/>
</clipPath>
</defs>
</svg>
