<svg width="16" height="16" viewBox="0 0 16 16" fill="none" xmlns="http://www.w3.org/2000/svg">
<path fill-rule="evenodd" clip-rule="evenodd" d="M12.863 1.51022C12.7987 1.49302 12.7302 1.50203 12.6725 1.53528L9.75629 3.21642C9.69901 3.24946 9.6572 3.30389 9.64006 3.36775C9.62295 3.43149 9.63181 3.4994 9.66468 3.55661L11.1184 6.07059C11.1518 6.12818 11.2066 6.17019 11.2709 6.1874C11.3352 6.2046 11.4036 6.1956 11.4613 6.16236L14.3777 4.48112C14.4061 4.46476 14.4309 4.44297 14.4509 4.417C14.4708 4.39102 14.4855 4.36137 14.494 4.32974C14.5025 4.2981 14.5046 4.26511 14.5004 4.23263C14.4961 4.20016 14.4855 4.16885 14.4691 4.14048L13.0157 1.62702C12.9822 1.56946 12.9273 1.52741 12.863 1.51022ZM8.63295 3.52332C8.62286 3.38493 8.63577 3.24455 8.67243 3.10799C8.75847 2.7875 8.96829 2.51431 9.25575 2.34853L12.1722 0.667248C12.4597 0.501569 12.8012 0.456617 13.1218 0.542324C13.4424 0.62803 13.7159 0.837359 13.8824 1.12441L15.3366 3.63929C15.4188 3.78165 15.4723 3.93915 15.4937 4.10212C15.5151 4.26509 15.5042 4.43068 15.4616 4.58943C15.419 4.74818 15.3455 4.89698 15.2454 5.02733C15.1453 5.15768 15.0205 5.26702 14.8781 5.34911L11.9617 7.03033C11.6741 7.19614 11.3325 7.24105 11.0118 7.15522C10.862 7.11513 10.7225 7.04804 10.5994 6.95864C10.5686 6.98162 10.5364 7.00292 10.5027 7.02239L8.9986 7.88919L11.9667 13.7788C12.0912 14.0258 11.9919 14.3271 11.7448 14.4516C11.4978 14.5761 11.1965 14.4767 11.072 14.2297L8.12917 8.39021L7.40468 8.80772L4.44272 15.2156C4.32664 15.4668 4.02895 15.5763 3.77782 15.4602C3.52669 15.3441 3.41721 15.0464 3.53329 14.7953L6.01173 9.43339C5.89345 9.43604 5.77516 9.42191 5.66043 9.39123C5.56401 9.36544 5.47125 9.32827 5.38405 9.28066C5.33923 9.31844 5.29088 9.35246 5.23941 9.38218L2.5241 10.9476C2.23656 11.1132 1.89491 11.1581 1.57437 11.0723C1.25384 10.9865 0.980443 10.7771 0.814133 10.4899L0.666893 10.2358C0.584683 10.0935 0.53101 9.93586 0.509522 9.77294C0.488034 9.61001 0.498851 9.44445 0.541358 9.2857C0.583864 9.12696 0.657225 8.97814 0.757253 8.84775C0.857281 8.71736 0.982015 8.60796 1.12433 8.52578L3.83928 6.96095C3.88921 6.93206 3.94214 6.90719 3.99604 6.88739C3.99782 6.78604 4.01192 6.68447 4.03864 6.58493C4.12468 6.26444 4.3345 5.99125 4.62196 5.82547L8.5118 3.58302C8.55065 3.56054 8.59161 3.54033 8.63295 3.52332ZM9.99993 6.15581L9.01367 4.4504L5.1225 6.69336C5.06527 6.7264 5.02341 6.78086 5.00627 6.8447C4.98915 6.90846 4.99802 6.97641 5.03093 7.03363L5.14333 7.2279C5.16701 7.2596 5.18884 7.29273 5.20868 7.32715L5.20262 7.33037M5.20868 7.32715L5.60589 8.01469C5.62454 8.04703 5.64147 8.08055 5.65627 8.11444L5.76725 8.30624C5.78362 8.33466 5.80587 8.3603 5.83188 8.38027C5.8579 8.40024 5.8876 8.41488 5.91928 8.42335C5.95096 8.43182 5.984 8.43396 6.01651 8.42965C6.04902 8.42533 6.08036 8.41464 6.10873 8.3982L6.10983 8.39756L9.99993 6.15581M4.3351 7.83156L1.62532 9.39342C1.5971 9.40977 1.57203 9.4317 1.55218 9.45758C1.53224 9.48356 1.51763 9.51321 1.50916 9.54484C1.50069 9.57648 1.49853 9.60947 1.50281 9.64193C1.50709 9.67435 1.51769 9.7056 1.53403 9.73392L1.68105 9.98769C1.71439 10.0453 1.76923 10.0873 1.83349 10.1045C1.89769 10.1217 1.96609 10.1127 2.0237 10.0796M2.0237 10.0796L4.7323 8.51807L4.3351 7.83156" fill="#202327"/>
</svg>
