<svg width="16" height="16" viewBox="0 0 16 16" fill="none" xmlns="http://www.w3.org/2000/svg">
<path d="M10.5033 8.00589C9.86053 8.00589 9.23906 7.71891 8.75263 7.1981C8.27965 6.6901 7.9908 6.01267 7.93984 5.29116C7.88544 4.52151 8.12022 3.81375 8.6007 3.29794C9.08119 2.78213 9.75299 2.50391 10.5033 2.50391C11.2482 2.50391 11.9219 2.78713 12.4008 3.30169C12.8844 3.82126 13.1198 4.52776 13.0654 5.29085C13.0132 6.0133 12.7247 6.69041 12.2526 7.19778C11.7675 7.71891 11.1463 8.00589 10.5033 8.00589Z" fill="#202327"/>
<path d="M14.6226 13.5061H6.38177C6.24928 13.5068 6.11839 13.4771 5.99917 13.4193C5.87996 13.3615 5.7756 13.2771 5.69412 13.1726C5.6077 13.0593 5.54801 12.928 5.51954 12.7884C5.49107 12.6488 5.49455 12.5046 5.52971 12.3665C5.79289 11.3097 6.44491 10.4333 7.41512 9.83218C8.27625 9.29894 9.37242 9.00513 10.502 9.00513C11.6539 9.00513 12.7213 9.28644 13.5874 9.81937C14.5598 10.4173 15.2128 11.2988 15.4747 12.3684C15.5094 12.5065 15.5125 12.6508 15.4837 12.7903C15.4549 12.9298 15.395 13.061 15.3084 13.1742C15.227 13.2782 15.1229 13.3621 15.004 13.4197C14.8851 13.4772 14.7547 13.5068 14.6226 13.5061Z" fill="#202327"/>
<path d="M4.59521 8.13082C3.49513 8.13082 2.52791 7.10795 2.43819 5.85093C2.3938 5.20695 2.59449 4.61142 3.00089 4.1747C3.40291 3.74236 3.96999 3.50415 4.59521 3.50415C5.22044 3.50415 5.78314 3.74361 6.18735 4.17846C6.59687 4.61861 6.79694 5.21289 6.75005 5.85156C6.66033 7.10826 5.69342 8.13082 4.59521 8.13082Z" fill="#202327"/>
<path d="M6.64829 9.11348C6.09841 8.84463 5.38471 8.71021 4.59599 8.71021C3.67503 8.71021 2.78065 8.95029 2.07727 9.38607C1.2798 9.88094 0.743353 10.6015 0.526712 11.4715C0.495009 11.5967 0.49201 11.7273 0.517941 11.8538C0.543871 11.9803 0.59806 12.0992 0.676454 12.2018C0.750839 12.2973 0.846135 12.3744 0.955012 12.4273C1.06389 12.4802 1.18345 12.5074 1.30449 12.5069H4.77449C4.83306 12.5069 4.88977 12.4863 4.93473 12.4488C4.97969 12.4112 5.01005 12.3591 5.02052 12.3015C5.02396 12.2818 5.02833 12.2621 5.03333 12.2427C5.29843 11.178 5.91959 10.2783 6.83742 9.62241C6.87118 9.59808 6.89833 9.5657 6.91642 9.52822C6.9345 9.49075 6.94295 9.44935 6.941 9.40778C6.93904 9.36621 6.92674 9.32579 6.90522 9.29017C6.88369 9.25456 6.85362 9.22488 6.81773 9.20382C6.76865 9.17506 6.71238 9.14474 6.64829 9.11348Z" fill="#202327"/>
</svg>
