<svg width="16" height="16" viewBox="0 0 16 16" fill="none" xmlns="http://www.w3.org/2000/svg">
<path fill-rule="evenodd" clip-rule="evenodd" d="M0.526595 11.468C0.995094 9.58837 2.83886 8.70679 4.59585 8.70679C5.30343 8.70679 6.00083 8.81341 6.64854 9.11017C6.89958 9.22519 7.00985 9.52195 6.89483 9.77299C6.77981 10.024 6.48305 10.1343 6.232 10.0193C5.75117 9.79899 5.20563 9.70679 4.59585 9.70679C3.18481 9.70679 1.95709 10.3619 1.55857 11.5031H4.81468C5.09083 11.5031 5.31468 11.727 5.31468 12.0031C5.31468 12.2792 5.09083 12.5031 4.81468 12.5031H1.30467C0.697751 12.5031 0.414159 11.9218 0.526595 11.468ZM5.53153 12.3641C6.09837 10.088 8.3348 9.00268 10.5033 9.00268C12.6674 9.00268 14.9088 10.0533 15.4758 12.3655C15.5996 12.8693 15.2866 13.5034 14.6239 13.5034H6.38304C5.72214 13.5034 5.40522 12.8709 5.53153 12.3641ZM10.5033 10.0027C8.6372 10.0027 6.9861 10.9025 6.52921 12.5034H14.4782C14.0229 10.8764 12.3756 10.0027 10.5033 10.0027Z" fill="#202327"/>
<path fill-rule="evenodd" clip-rule="evenodd" d="M10.5071 7.00174C11.2552 7.00174 12.0119 6.30901 12.0119 5.26068C12.0119 4.21235 11.2552 3.51962 10.5071 3.51962C9.75906 3.51962 9.00241 4.21235 9.00241 5.26068C9.00241 6.30901 9.75906 7.00174 10.5071 7.00174ZM10.5071 8.00174C11.8905 8.00174 13.0119 6.77453 13.0119 5.26068C13.0119 3.74684 11.8905 2.51962 10.5071 2.51962C9.12382 2.51962 8.00241 3.74684 8.00241 5.26068C8.00241 6.77453 9.12382 8.00174 10.5071 8.00174Z" fill="#202327"/>
<path fill-rule="evenodd" clip-rule="evenodd" d="M4.59782 7.14987C5.17861 7.14987 5.76765 6.62272 5.76765 5.82138C5.76765 5.02003 5.17861 4.49289 4.59782 4.49289C4.01704 4.49289 3.42799 5.02003 3.42799 5.82138C3.42799 6.62272 4.01704 7.14987 4.59782 7.14987ZM4.59782 8.14987C5.79619 8.14987 6.76765 7.10737 6.76765 5.82138C6.76765 4.53539 5.79619 3.49289 4.59782 3.49289C3.39946 3.49289 2.42799 4.53539 2.42799 5.82138C2.42799 7.10737 3.39946 8.14987 4.59782 8.14987Z" fill="#202327"/>
</svg>
