<svg width="16" height="16" viewBox="0 0 16 16" fill="none" xmlns="http://www.w3.org/2000/svg">
<path d="M11.8153 10.1315C11.2447 10.1313 10.6968 10.3547 10.289 10.7538L6.31408 8.51897C6.39576 8.18189 6.39576 7.83019 6.31408 7.49312L10.2878 5.25825C10.659 5.61935 11.1466 5.83653 11.6634 5.87091C12.1801 5.90529 12.6922 5.75462 13.108 5.44588C13.5238 5.13715 13.8161 4.69049 13.9327 4.18589C14.0492 3.68129 13.9823 3.15168 13.744 2.69188C13.5057 2.23209 13.1115 1.87212 12.632 1.67643C12.1526 1.48074 11.6191 1.4621 11.1271 1.62385C10.6351 1.7856 10.2168 2.11718 9.94695 2.55923C9.67713 3.00127 9.57346 3.52492 9.6545 4.03643L5.58705 6.32442C5.26756 6.05824 4.87884 5.88861 4.46641 5.83542C4.05399 5.78222 3.63494 5.84765 3.25837 6.02405C2.8818 6.20045 2.56329 6.48052 2.34016 6.83143C2.11704 7.18234 1.99854 7.58957 1.99854 8.00542C1.99854 8.42126 2.11704 8.82849 2.34016 9.1794C2.56329 9.53032 2.8818 9.81038 3.25837 9.98678C3.63494 10.1632 4.05399 10.2286 4.46641 10.1754C4.87884 10.1222 5.26756 9.95259 5.58705 9.68641L9.6545 11.9757C9.58418 12.4176 9.65104 12.8704 9.84606 13.2731C10.0411 13.6758 10.3549 14.0091 10.7452 14.2279C11.1355 14.4468 11.5835 14.5407 12.0288 14.497C12.4741 14.4534 12.8953 14.2742 13.2357 13.9837C13.576 13.6933 13.8191 13.3054 13.9322 12.8725C14.0453 12.4396 14.023 11.9824 13.8682 11.5625C13.7134 11.1427 13.4336 10.7804 13.0665 10.5246C12.6994 10.2687 12.2627 10.1315 11.8153 10.1315Z" fill="#202327"/>
</svg>
